<?xml version="1.0" encoding="UTF-8"?>
<svg xmlns="http://www.w3.org/2000/svg" xmlns:xlink="http://www.w3.org/1999/xlink" width="323pt" height="323pt" viewBox="0 0 323 323" version="1.1">
<g id="surface79516">
<rect x="0" y="0" width="323" height="323" style="fill:rgb(100%,100%,100%);fill-opacity:1;stroke:none;"/>
<path style="fill-rule:evenodd;fill:rgb(100%,100%,100%);fill-opacity:1;stroke-width:0.1;stroke-linecap:butt;stroke-linejoin:miter;stroke:rgb(0%,0%,0%);stroke-opacity:1;stroke-miterlimit:10;" d="M 16.050014 8.05 C 16.050014 12.495898 12.445913 16.1 8.000014 16.1 C 3.554116 16.1 -0.0499859 12.495898 -0.0499859 8.05 C -0.0499859 3.604102 3.554116 -0.000000000745058 8.000014 -0.000000000745058 C 12.445913 -0.000000000745058 16.050014 3.604102 16.050014 8.05 " transform="matrix(20,0,0,20,1.999718,1)"/>
<path style="fill:none;stroke-width:0.1;stroke-linecap:butt;stroke-linejoin:miter;stroke:rgb(0%,0%,0%);stroke-opacity:1;stroke-miterlimit:10;" d="M 8.000014 -0.000000000745058 L 8.000014 16.1 " transform="matrix(20,0,0,20,1.999718,1)"/>
<path style="fill:none;stroke-width:0.1;stroke-linecap:butt;stroke-linejoin:miter;stroke:rgb(0%,0%,0%);stroke-opacity:1;stroke-miterlimit:10;" d="M 16.050014 8.05 L -0.0499859 8.05 " transform="matrix(20,0,0,20,1.999718,1)"/>
<path style="fill:none;stroke-width:0.1;stroke-linecap:butt;stroke-linejoin:miter;stroke:rgb(0%,0%,0%);stroke-opacity:1;stroke-miterlimit:10;" d="M 3.950014 6 L 4.950014 7 " transform="matrix(20,0,0,20,1.999718,1)"/>
<path style="fill:none;stroke-width:0.1;stroke-linecap:butt;stroke-linejoin:miter;stroke:rgb(0%,0%,0%);stroke-opacity:1;stroke-miterlimit:10;" d="M 4.950014 6 L 3.950014 7 " transform="matrix(20,0,0,20,1.999718,1)"/>
<path style="fill:none;stroke-width:0.1;stroke-linecap:butt;stroke-linejoin:miter;stroke:rgb(0%,0%,0%);stroke-opacity:1;stroke-miterlimit:10;" d="M 4.950014 3 L 5.950014 4 " transform="matrix(20,0,0,20,1.999718,1)"/>
<path style="fill:none;stroke-width:0.1;stroke-linecap:butt;stroke-linejoin:miter;stroke:rgb(0%,0%,0%);stroke-opacity:1;stroke-miterlimit:10;" d="M 5.950014 3 L 4.950014 4 " transform="matrix(20,0,0,20,1.999718,1)"/>
<path style="fill:none;stroke-width:0.1;stroke-linecap:butt;stroke-linejoin:miter;stroke:rgb(0%,0%,0%);stroke-opacity:1;stroke-miterlimit:10;" d="M 1.950014 4 L 2.950014 5 " transform="matrix(20,0,0,20,1.999718,1)"/>
<path style="fill:none;stroke-width:0.1;stroke-linecap:butt;stroke-linejoin:miter;stroke:rgb(0%,0%,0%);stroke-opacity:1;stroke-miterlimit:10;" d="M 2.950014 4 L 1.950014 5 " transform="matrix(20,0,0,20,1.999718,1)"/>
<path style="fill:none;stroke-width:0.1;stroke-linecap:butt;stroke-linejoin:miter;stroke:rgb(0%,0%,0%);stroke-opacity:1;stroke-miterlimit:10;" d="M 11.950014 6 L 12.950014 7 " transform="matrix(20,0,0,20,1.999718,1)"/>
<path style="fill:none;stroke-width:0.1;stroke-linecap:butt;stroke-linejoin:miter;stroke:rgb(0%,0%,0%);stroke-opacity:1;stroke-miterlimit:10;" d="M 12.950014 6 L 11.950014 7 " transform="matrix(20,0,0,20,1.999718,1)"/>
<path style="fill:none;stroke-width:0.1;stroke-linecap:butt;stroke-linejoin:miter;stroke:rgb(0%,0%,0%);stroke-opacity:1;stroke-miterlimit:10;" d="M 9.950014 3 L 10.950014 4 " transform="matrix(20,0,0,20,1.999718,1)"/>
<path style="fill:none;stroke-width:0.1;stroke-linecap:butt;stroke-linejoin:miter;stroke:rgb(0%,0%,0%);stroke-opacity:1;stroke-miterlimit:10;" d="M 10.950014 3 L 9.950014 4 " transform="matrix(20,0,0,20,1.999718,1)"/>
<path style="fill:none;stroke-width:0.1;stroke-linecap:butt;stroke-linejoin:miter;stroke:rgb(0%,0%,0%);stroke-opacity:1;stroke-miterlimit:10;" d="M 10.950014 10 L 11.950014 11 " transform="matrix(20,0,0,20,1.999718,1)"/>
<path style="fill:none;stroke-width:0.1;stroke-linecap:butt;stroke-linejoin:miter;stroke:rgb(0%,0%,0%);stroke-opacity:1;stroke-miterlimit:10;" d="M 11.950014 10 L 10.950014 11 " transform="matrix(20,0,0,20,1.999718,1)"/>
<path style="fill:none;stroke-width:0.1;stroke-linecap:butt;stroke-linejoin:miter;stroke:rgb(0%,0%,0%);stroke-opacity:1;stroke-miterlimit:10;" d="M 9.950014 12 L 10.950014 13 " transform="matrix(20,0,0,20,1.999718,1)"/>
<path style="fill:none;stroke-width:0.1;stroke-linecap:butt;stroke-linejoin:miter;stroke:rgb(0%,0%,0%);stroke-opacity:1;stroke-miterlimit:10;" d="M 10.950014 12 L 9.950014 13 " transform="matrix(20,0,0,20,1.999718,1)"/>
<path style="fill:none;stroke-width:0.1;stroke-linecap:butt;stroke-linejoin:miter;stroke:rgb(0%,0%,0%);stroke-opacity:1;stroke-miterlimit:10;" d="M 11.950014 12 L 12.950014 13 " transform="matrix(20,0,0,20,1.999718,1)"/>
<path style="fill:none;stroke-width:0.1;stroke-linecap:butt;stroke-linejoin:miter;stroke:rgb(0%,0%,0%);stroke-opacity:1;stroke-miterlimit:10;" d="M 12.950014 12 L 11.950014 13 " transform="matrix(20,0,0,20,1.999718,1)"/>
<path style="fill:none;stroke-width:0.1;stroke-linecap:butt;stroke-linejoin:miter;stroke:rgb(0%,0%,0%);stroke-opacity:1;stroke-miterlimit:10;" d="M 2.950014 10 L 3.950014 11 " transform="matrix(20,0,0,20,1.999718,1)"/>
<path style="fill:none;stroke-width:0.1;stroke-linecap:butt;stroke-linejoin:miter;stroke:rgb(0%,0%,0%);stroke-opacity:1;stroke-miterlimit:10;" d="M 3.950014 10 L 2.950014 11 " transform="matrix(20,0,0,20,1.999718,1)"/>
<path style="fill:none;stroke-width:0.1;stroke-linecap:butt;stroke-linejoin:miter;stroke:rgb(0%,0%,0%);stroke-opacity:1;stroke-miterlimit:10;" d="M 4.950014 11 L 5.950014 12 " transform="matrix(20,0,0,20,1.999718,1)"/>
<path style="fill:none;stroke-width:0.1;stroke-linecap:butt;stroke-linejoin:miter;stroke:rgb(0%,0%,0%);stroke-opacity:1;stroke-miterlimit:10;" d="M 5.950014 11 L 4.950014 12 " transform="matrix(20,0,0,20,1.999718,1)"/>
<path style="fill:none;stroke-width:0.05;stroke-linecap:round;stroke-linejoin:miter;stroke:rgb(0%,0%,0%);stroke-opacity:1;stroke-miterlimit:10;" d="M 14.465639 0.15625 C 14.36017 0.15625 14.282045 0.210937 14.231264 0.3125 C 14.176577 0.40625 14.153139 0.554687 14.153139 0.75 C 14.153139 0.960937 14.176577 1.117187 14.231264 1.21875 C 14.282045 1.3125 14.36017 1.359375 14.465639 1.359375 C 14.567202 1.359375 14.64142 1.3125 14.684389 1.21875 C 14.73517 1.117187 14.762514 0.960937 14.762514 0.75 C 14.762514 0.554687 14.73517 0.40625 14.684389 0.3125 C 14.64142 0.210937 14.567202 0.15625 14.465639 0.15625 " transform="matrix(20,0,0,20,1.999718,1)"/>
<path style="fill:none;stroke-width:0.05;stroke-linecap:round;stroke-linejoin:miter;stroke:rgb(0%,0%,0%);stroke-opacity:1;stroke-miterlimit:10;" d="M 14.465639 -0.000000000745058 C 14.621889 -0.000000000745058 14.739077 0.0703125 14.825014 0.203125 C 14.918764 0.328125 14.965639 0.511719 14.965639 0.75 C 14.965639 1 14.918764 1.195312 14.825014 1.328125 C 14.739077 1.453125 14.621889 1.515625 14.465639 1.515625 C 14.29767 1.515625 14.168764 1.453125 14.075014 1.328125 C 13.989077 1.195312 13.950014 1 13.950014 0.75 C 13.950014 0.511719 13.989077 0.328125 14.075014 0.203125 C 14.168764 0.0703125 14.29767 -0.000000000745058 14.465639 -0.000000000745058 " transform="matrix(20,0,0,20,1.999718,1)"/>
<path style="fill:none;stroke-width:0.05;stroke-linecap:round;stroke-linejoin:miter;stroke:rgb(0%,0%,0%);stroke-opacity:1;stroke-miterlimit:10;" d="M 13.981264 15.28125 L 14.309389 15.28125 L 14.309389 14.171875 L 13.950014 14.25 L 13.950014 14.0625 L 14.293764 14 L 14.496889 14 L 14.496889 15.28125 L 14.825014 15.28125 L 14.825014 15.453125 L 13.981264 15.453125 L 13.981264 15.28125 " transform="matrix(20,0,0,20,1.999718,1)"/>
<path style="fill:none;stroke-width:0.05;stroke-linecap:round;stroke-linejoin:miter;stroke:rgb(0%,0%,0%);stroke-opacity:1;stroke-miterlimit:10;" d="M 1.200014 15.3125 L 1.887514 15.3125 L 1.887514 15.484375 L 0.950014 15.484375 L 0.950014 15.3125 C 1.032045 15.242187 1.137514 15.140625 1.262514 15.015625 C 1.387514 14.882812 1.469545 14.792969 1.512514 14.75 C 1.575014 14.679687 1.614077 14.621094 1.637514 14.578125 C 1.657045 14.527344 1.668764 14.476562 1.668764 14.421875 C 1.668764 14.351562 1.64142 14.292969 1.590639 14.25 C 1.535952 14.199219 1.469545 14.171875 1.387514 14.171875 C 1.325014 14.171875 1.254702 14.183594 1.184389 14.203125 C 1.121889 14.226562 1.04767 14.257812 0.965639 14.296875 L 0.965639 14.09375 C 1.04767 14.0625 1.121889 14.042969 1.184389 14.03125 C 1.254702 14.011719 1.317202 14 1.371889 14 C 1.528139 14 1.645327 14.039062 1.731264 14.109375 C 1.825014 14.183594 1.871889 14.289062 1.871889 14.421875 C 1.871889 14.476562 1.86017 14.53125 1.840639 14.59375 C 1.817202 14.648437 1.778139 14.710937 1.715639 14.78125 C 1.70392 14.792969 1.653139 14.84375 1.559389 14.9375 C 1.473452 15.03125 1.356264 15.15625 1.200014 15.3125 " transform="matrix(20,0,0,20,1.999718,1)"/>
<path style="fill:none;stroke-width:0.05;stroke-linecap:round;stroke-linejoin:miter;stroke:rgb(0%,0%,0%);stroke-opacity:1;stroke-miterlimit:10;" d="M 1.606264 0.703125 C 1.700014 0.726562 1.770327 0.765625 1.825014 0.828125 C 1.875795 0.890625 1.903139 0.96875 1.903139 1.0625 C 1.903139 1.210937 1.848452 1.324219 1.746889 1.40625 C 1.653139 1.480469 1.51642 1.515625 1.340639 1.515625 C 1.278139 1.515625 1.207827 1.503906 1.137514 1.484375 C 1.075014 1.476562 1.012514 1.460937 0.950014 1.4375 L 0.950014 1.25 C 1.000795 1.28125 1.059389 1.308594 1.121889 1.328125 C 1.192202 1.339844 1.262514 1.34375 1.325014 1.34375 C 1.450014 1.34375 1.543764 1.324219 1.606264 1.28125 C 1.676577 1.230469 1.715639 1.15625 1.715639 1.0625 C 1.715639 0.980469 1.684389 0.914062 1.621889 0.859375 C 1.559389 0.808594 1.473452 0.78125 1.371889 0.78125 L 1.200014 0.78125 L 1.200014 0.625 L 1.371889 0.625 C 1.473452 0.625 1.54767 0.605469 1.590639 0.5625 C 1.64142 0.523437 1.668764 0.464844 1.668764 0.390625 C 1.668764 0.320312 1.64142 0.265625 1.590639 0.234375 C 1.535952 0.195312 1.465639 0.171875 1.371889 0.171875 C 1.317202 0.171875 1.262514 0.179687 1.200014 0.1875 C 1.137514 0.199219 1.067202 0.214844 0.996889 0.234375 L 0.996889 0.0625 C 1.067202 0.0429687 1.137514 0.0273437 1.200014 0.015625 C 1.262514 0.0078125 1.325014 -0.000000000745058 1.387514 -0.000000000745058 C 1.532045 -0.000000000745058 1.645327 0.0390625 1.731264 0.109375 C 1.825014 0.171875 1.871889 0.261719 1.871889 0.375 C 1.871889 0.460937 1.844545 0.53125 1.793764 0.59375 C 1.750795 0.648437 1.688295 0.683594 1.606264 0.703125 " transform="matrix(20,0,0,20,1.999718,1)"/>
</g>
</svg>
