<?xml version="1.0" encoding="UTF-8"?>
<svg xmlns="http://www.w3.org/2000/svg" xmlns:xlink="http://www.w3.org/1999/xlink" width="323pt" height="323pt" viewBox="0 0 323 323" version="1.1">
<g id="surface167300">
<rect x="0" y="0" width="323" height="323" style="fill:rgb(100%,100%,100%);fill-opacity:1;stroke:none;"/>
<path style="fill-rule:evenodd;fill:rgb(100%,100%,100%);fill-opacity:1;stroke-width:0.1;stroke-linecap:butt;stroke-linejoin:miter;stroke:rgb(0%,0%,0%);stroke-opacity:1;stroke-miterlimit:10;" d="M 30.742214 16.307815 C 30.742214 20.753713 27.138112 24.357815 22.692214 24.357815 C 18.246315 24.357815 14.642214 20.753713 14.642214 16.307815 C 14.642214 11.861916 18.246315 8.257815 22.692214 8.257815 C 27.138112 8.257815 30.742214 11.861916 30.742214 16.307815 " transform="matrix(20,0,0,20,-291.844274,-164.15629)"/>
<path style="fill:none;stroke-width:0.1;stroke-linecap:butt;stroke-linejoin:miter;stroke:rgb(0%,0%,0%);stroke-opacity:1;stroke-miterlimit:10;" d="M 22.692214 8.257815 L 22.692214 24.357815 " transform="matrix(20,0,0,20,-291.844274,-164.15629)"/>
<path style="fill:none;stroke-width:0.1;stroke-linecap:butt;stroke-linejoin:miter;stroke:rgb(0%,0%,0%);stroke-opacity:1;stroke-miterlimit:10;" d="M 30.742214 16.307815 L 14.642214 16.307815 " transform="matrix(20,0,0,20,-291.844274,-164.15629)"/>
<path style="fill:none;stroke-width:0.1;stroke-linecap:butt;stroke-linejoin:miter;stroke:rgb(0%,0%,0%);stroke-opacity:1;stroke-miterlimit:10;" d="M 27.642214 18.257815 L 28.642214 19.257815 " transform="matrix(20,0,0,20,-291.844274,-164.15629)"/>
<path style="fill:none;stroke-width:0.1;stroke-linecap:butt;stroke-linejoin:miter;stroke:rgb(0%,0%,0%);stroke-opacity:1;stroke-miterlimit:10;" d="M 28.642214 18.257815 L 27.642214 19.257815 " transform="matrix(20,0,0,20,-291.844274,-164.15629)"/>
<path style="fill:none;stroke-width:0.1;stroke-linecap:butt;stroke-linejoin:miter;stroke:rgb(0%,0%,0%);stroke-opacity:1;stroke-miterlimit:10;" d="M 16.642214 13.257815 L 17.642214 14.257815 " transform="matrix(20,0,0,20,-291.844274,-164.15629)"/>
<path style="fill:none;stroke-width:0.1;stroke-linecap:butt;stroke-linejoin:miter;stroke:rgb(0%,0%,0%);stroke-opacity:1;stroke-miterlimit:10;" d="M 17.642214 13.257815 L 16.642214 14.257815 " transform="matrix(20,0,0,20,-291.844274,-164.15629)"/>
<path style="fill:none;stroke-width:0.1;stroke-linecap:butt;stroke-linejoin:miter;stroke:rgb(0%,0%,0%);stroke-opacity:1;stroke-miterlimit:10;" d="M 16.642214 18.257815 L 17.642214 19.257815 " transform="matrix(20,0,0,20,-291.844274,-164.15629)"/>
<path style="fill:none;stroke-width:0.1;stroke-linecap:butt;stroke-linejoin:miter;stroke:rgb(0%,0%,0%);stroke-opacity:1;stroke-miterlimit:10;" d="M 17.642214 18.257815 L 16.642214 19.257815 " transform="matrix(20,0,0,20,-291.844274,-164.15629)"/>
<path style="fill:none;stroke-width:0.1;stroke-linecap:butt;stroke-linejoin:miter;stroke:rgb(0%,0%,0%);stroke-opacity:1;stroke-miterlimit:10;" d="M 24.642214 21.257815 L 25.642214 22.257815 " transform="matrix(20,0,0,20,-291.844274,-164.15629)"/>
<path style="fill:none;stroke-width:0.1;stroke-linecap:butt;stroke-linejoin:miter;stroke:rgb(0%,0%,0%);stroke-opacity:1;stroke-miterlimit:10;" d="M 25.642214 21.257815 L 24.642214 22.257815 " transform="matrix(20,0,0,20,-291.844274,-164.15629)"/>
<path style="fill:none;stroke-width:0.1;stroke-linecap:butt;stroke-linejoin:miter;stroke:rgb(0%,0%,0%);stroke-opacity:1;stroke-miterlimit:10;" d="M 19.642214 10.257815 L 20.642214 11.257815 " transform="matrix(20,0,0,20,-291.844274,-164.15629)"/>
<path style="fill:none;stroke-width:0.1;stroke-linecap:butt;stroke-linejoin:miter;stroke:rgb(0%,0%,0%);stroke-opacity:1;stroke-miterlimit:10;" d="M 20.642214 10.257815 L 19.642214 11.257815 " transform="matrix(20,0,0,20,-291.844274,-164.15629)"/>
<path style="fill:none;stroke-width:0.1;stroke-linecap:butt;stroke-linejoin:miter;stroke:rgb(0%,0%,0%);stroke-opacity:1;stroke-miterlimit:10;" d="M 19.642214 21.257815 L 20.642214 22.257815 " transform="matrix(20,0,0,20,-291.844274,-164.15629)"/>
<path style="fill:none;stroke-width:0.1;stroke-linecap:butt;stroke-linejoin:miter;stroke:rgb(0%,0%,0%);stroke-opacity:1;stroke-miterlimit:10;" d="M 20.642214 21.257815 L 19.642214 22.257815 " transform="matrix(20,0,0,20,-291.844274,-164.15629)"/>
<path style="fill:none;stroke-width:0.1;stroke-linecap:butt;stroke-linejoin:miter;stroke:rgb(0%,0%,0%);stroke-opacity:1;stroke-miterlimit:10;" d="M 24.642214 10.257815 L 25.642214 11.257815 " transform="matrix(20,0,0,20,-291.844274,-164.15629)"/>
<path style="fill:none;stroke-width:0.1;stroke-linecap:butt;stroke-linejoin:miter;stroke:rgb(0%,0%,0%);stroke-opacity:1;stroke-miterlimit:10;" d="M 25.642214 10.257815 L 24.642214 11.257815 " transform="matrix(20,0,0,20,-291.844274,-164.15629)"/>
<path style="fill:none;stroke-width:0.1;stroke-linecap:butt;stroke-linejoin:miter;stroke:rgb(0%,0%,0%);stroke-opacity:1;stroke-miterlimit:10;" d="M 27.642214 13.257815 L 28.642214 14.257815 " transform="matrix(20,0,0,20,-291.844274,-164.15629)"/>
<path style="fill:none;stroke-width:0.1;stroke-linecap:butt;stroke-linejoin:miter;stroke:rgb(0%,0%,0%);stroke-opacity:1;stroke-miterlimit:10;" d="M 28.642214 13.257815 L 27.642214 14.257815 " transform="matrix(20,0,0,20,-291.844274,-164.15629)"/>
<path style="fill:none;stroke-width:0.1;stroke-linecap:butt;stroke-linejoin:miter;stroke:rgb(0%,0%,0%);stroke-opacity:1;stroke-miterlimit:10;" d="M 28.384401 22.000002 L 17.000026 10.615627 " transform="matrix(20,0,0,20,-291.844274,-164.15629)"/>
<path style="fill:none;stroke-width:0.1;stroke-linecap:butt;stroke-linejoin:miter;stroke:rgb(0%,0%,0%);stroke-opacity:1;stroke-miterlimit:10;" d="M 17.000026 22.000002 L 28.384401 10.615627 " transform="matrix(20,0,0,20,-291.844274,-164.15629)"/>
</g>
</svg>
