<?xml version="1.0" encoding="UTF-8"?><svg xmlns="http://www.w3.org/2000/svg" xmlns:xlink="http://www.w3.org/1999/xlink" fill-opacity="1" color-rendering="auto" color-interpolation="auto" text-rendering="auto" stroke="black" stroke-linecap="square" width="400" stroke-miterlimit="10" shape-rendering="auto" stroke-opacity="1" fill="black" stroke-dasharray="none" font-weight="normal" stroke-width="1" height="203" font-family="'Dialog'" font-style="normal" stroke-linejoin="miter" font-size="12px" stroke-dashoffset="0" image-rendering="auto">
  <!--Generated by ySVG 2.5-->
  <defs id="genericDefs"/>
  <g>
    <defs id="defs1">
      <clipPath clipPathUnits="userSpaceOnUse" id="clipPath1">
        <path d="M0 0 L400 0 L400 203 L0 203 L0 0 Z"/>
      </clipPath>
      <clipPath clipPathUnits="userSpaceOnUse" id="clipPath2">
        <path d="M284 438 L684 438 L684 641 L284 641 L284 438 Z"/>
      </clipPath>
    </defs>
    <g fill="rgb(255,204,0)" text-rendering="geometricPrecision" shape-rendering="geometricPrecision" transform="matrix(1,0,0,1,-284,-438)" stroke="rgb(255,204,0)">
      <rect x="356" width="80" height="30" y="454" clip-path="url(#clipPath2)" stroke="none"/>
    </g>
    <g text-rendering="geometricPrecision" stroke-miterlimit="1.45" shape-rendering="geometricPrecision" transform="matrix(1,0,0,1,-284,-438)" stroke-linecap="butt">
      <rect fill="none" x="356" width="80" height="30" y="454" clip-path="url(#clipPath2)"/>
      <text x="382.7373" xml:space="preserve" y="466.1699" clip-path="url(#clipPath2)" font-family="sans-serif" stroke="none">Blog</text>
      <text x="365.8271" xml:space="preserve" y="480.1387" clip-path="url(#clipPath2)" font-family="sans-serif" stroke="none">on GitHub</text>
    </g>
    <g fill="rgb(255,204,0)" text-rendering="geometricPrecision" shape-rendering="geometricPrecision" transform="matrix(1,0,0,1,-284,-438)" stroke="rgb(255,204,0)">
      <rect x="554" width="115" height="30" y="500" clip-path="url(#clipPath2)" stroke="none"/>
    </g>
    <g text-rendering="geometricPrecision" stroke-miterlimit="1.45" shape-rendering="geometricPrecision" transform="matrix(1,0,0,1,-284,-438)" stroke-linecap="butt">
      <rect fill="none" x="554" width="115" height="30" y="500" clip-path="url(#clipPath2)"/>
      <text x="557.8223" xml:space="preserve" y="519.1543" clip-path="url(#clipPath2)" font-family="sans-serif" stroke="none">Comment System</text>
    </g>
    <g fill="rgb(255,204,0)" text-rendering="geometricPrecision" shape-rendering="geometricPrecision" transform="matrix(1,0,0,1,-284,-438)" stroke="rgb(255,204,0)">
      <ellipse rx="24.5" ry="15" clip-path="url(#clipPath2)" cx="400.5" cy="611" stroke="none"/>
    </g>
    <g text-rendering="geometricPrecision" stroke-miterlimit="1.45" shape-rendering="geometricPrecision" transform="matrix(1,0,0,1,-284,-438)" stroke-linecap="butt">
      <ellipse rx="24.5" fill="none" ry="15" clip-path="url(#clipPath2)" cx="400.5" cy="611"/>
      <text x="386.8242" xml:space="preserve" y="615.1543" clip-path="url(#clipPath2)" font-family="sans-serif" stroke="none">User</text>
      <path fill="none" d="M554 502.7262 L443.8237 479.2083" clip-path="url(#clipPath2)"/>
      <path d="M436 477.5383 L446.6918 484.9332 L444.8017 479.4171 L448.7794 475.1535 Z" clip-path="url(#clipPath2)" stroke="none"/>
      <text x="482.8315" xml:space="preserve" y="469.0392" clip-path="url(#clipPath2)" font-family="sans-serif" stroke="none">Updates site</text>
      <path fill="none" d="M396.4753 484 L399.7713 588.0068" clip-path="url(#clipPath2)"/>
      <path d="M400.0247 596.0028 L404.6421 583.8505 L399.7397 587.0073 L394.6471 584.1672 Z" clip-path="url(#clipPath2)" stroke="none"/>
      <text x="301.5987" xml:space="preserve" y="544.1543" clip-path="url(#clipPath2)" font-family="sans-serif" stroke="none">Reads post</text>
      <path fill="none" d="M420.1647 602.053 L571.2495 533.313" clip-path="url(#clipPath2)"/>
      <path d="M578.5312 530 L565.538 530.4185 L570.3393 533.7272 L569.6793 539.5206 Z" clip-path="url(#clipPath2)" stroke="none"/>
      <text x="456.7222" xml:space="preserve" y="599.1059" clip-path="url(#clipPath2)" font-family="sans-serif" stroke="none">Leaves comment</text>
    </g>
  </g>
</svg>
